<?xml version="1.0" encoding="UTF-8" standalone="no"?>
<!-- Created with Inkscape (http://www.inkscape.org/) -->

<svg
   xmlns:dc="http://purl.org/dc/elements/1.1/"
   xmlns:cc="http://creativecommons.org/ns#"
   xmlns:rdf="http://www.w3.org/1999/02/22-rdf-syntax-ns#"
   xmlns:svg="http://www.w3.org/2000/svg"
   xmlns="http://www.w3.org/2000/svg"
   xmlns:sodipodi="http://sodipodi.sourceforge.net/DTD/sodipodi-0.dtd"
   xmlns:inkscape="http://www.inkscape.org/namespaces/inkscape"
   width="210mm"
   height="297mm"
   viewBox="0 0 744.09448819 1052.3622047"
   id="svg5701"
   version="1.1"
   inkscape:version="0.91 r"
   sodipodi:docname="egg_laugh.svg">
  <defs
     id="defs5703">
    <clipPath
       clipPathUnits="userSpaceOnUse"
       id="clipPath6882">
      <path
         style="fill:#8d3d00;fill-opacity:1;fill-rule:evenodd;stroke:none;stroke-width:1px;stroke-linecap:butt;stroke-linejoin:miter;stroke-opacity:1"
         d="m 195.49593,255.53068 c 0,0 34.64485,-10.72341 65.99019,-1.64976 0,0 16.95647,120.47355 -28.87071,117.13259 -45.46639,0.84496 -22.91358,-78.85367 -24.74632,-114.65795 -19.39017,2.34953 -12.37316,-0.82488 -12.37316,-0.82488 z"
         id="path6884"
         inkscape:connector-curvature="0"
         sodipodi:nodetypes="ccccc" />
    </clipPath>
    <clipPath
       clipPathUnits="userSpaceOnUse"
       id="clipPath7606">
      <path
         style="color:#000000;clip-rule:nonzero;display:inline;overflow:visible;visibility:visible;opacity:0.98000004;isolation:auto;mix-blend-mode:normal;color-interpolation:sRGB;color-interpolation-filters:linearRGB;solid-color:#000000;solid-opacity:1;fill:#fddf0c;fill-opacity:1;fill-rule:nonzero;stroke:none;stroke-width:10;stroke-linecap:round;stroke-linejoin:miter;stroke-miterlimit:4;stroke-dasharray:none;stroke-dashoffset:0;stroke-opacity:1;color-rendering:auto;image-rendering:auto;shape-rendering:auto;text-rendering:auto;enable-background:accumulate"
         d="M 482.90526,274.96891 C 452.01645,221.46792 335.52133,232.15327 289.90772,258.4883 c -45.61361,26.33503 -71.13351,98.33538 -40.54514,151.31655 30.58855,52.98156 105.14061,67.20609 151.31708,40.54609 46.17648,-26.66 113.11441,-121.88104 82.2256,-175.38203 z"
         id="path7608"
         inkscape:connector-curvature="0"
         sodipodi:nodetypes="zzszz" />
    </clipPath>
  </defs>
  <sodipodi:namedview
     id="base"
     pagecolor="#ffffff"
     bordercolor="#666666"
     borderopacity="1.0"
     inkscape:pageopacity="0.0"
     inkscape:pageshadow="2"
     inkscape:zoom="1.4845957"
     inkscape:cx="217.3055"
     inkscape:cy="686.43961"
     inkscape:document-units="px"
     inkscape:current-layer="layer3"
     showgrid="false"
     inkscape:window-width="1317"
     inkscape:window-height="744"
     inkscape:window-x="49"
     inkscape:window-y="24"
     inkscape:window-maximized="1" />
  <metadata
     id="metadata5706">
    <rdf:RDF>
      <cc:Work
         rdf:about="">
        <dc:format>image/svg+xml</dc:format>
        <dc:type
           rdf:resource="http://purl.org/dc/dcmitype/StillImage" />
        <dc:title />
      </cc:Work>
    </rdf:RDF>
  </metadata>
  <g
     inkscape:groupmode="layer"
     id="layer3"
     inkscape:label="backgound">
    <rect
       style="color:#000000;clip-rule:nonzero;display:inline;overflow:visible;visibility:visible;opacity:0.98000004;isolation:auto;mix-blend-mode:normal;color-interpolation:sRGB;color-interpolation-filters:linearRGB;solid-color:#000000;solid-opacity:1;fill:#a64646;fill-opacity:1;fill-rule:nonzero;stroke:none;stroke-width:6;stroke-linecap:round;stroke-linejoin:miter;stroke-miterlimit:4;stroke-dasharray:none;stroke-dashoffset:0;stroke-opacity:1;color-rendering:auto;image-rendering:auto;shape-rendering:auto;text-rendering:auto;enable-background:accumulate"
       id="rect6932"
       width="745.68915"
       height="1055.843"
       x="-0.7973299"
       y="-1.7404064"
       rx="10.4141"
       ry="11.4687" />
  </g>
  <g
     inkscape:label="egg_laugh"
     inkscape:groupmode="layer"
     id="layer1"
     sodipodi:insensitive="true">
    <ellipse
       style="color:#000000;clip-rule:nonzero;display:inline;overflow:visible;visibility:visible;opacity:1;isolation:auto;mix-blend-mode:normal;color-interpolation:sRGB;color-interpolation-filters:linearRGB;solid-color:#000000;solid-opacity:1;fill:#000000;fill-opacity:0.31499999;fill-rule:nonzero;stroke:none;stroke-width:6;stroke-linecap:round;stroke-linejoin:miter;stroke-miterlimit:4;stroke-dasharray:none;stroke-dashoffset:0;stroke-opacity:1;color-rendering:auto;image-rendering:auto;shape-rendering:auto;text-rendering:auto;enable-background:accumulate"
       id="path7664"
       cx="358.82166"
       cy="459.27539"
       rx="85.787239"
       ry="28.870707" />
    <path
       style="color:#000000;clip-rule:nonzero;display:inline;overflow:visible;visibility:visible;opacity:1;isolation:auto;mix-blend-mode:normal;color-interpolation:sRGB;color-interpolation-filters:linearRGB;solid-color:#000000;solid-opacity:1;fill:#fddf0c;fill-opacity:1;fill-rule:nonzero;stroke:none;stroke-width:10;stroke-linecap:round;stroke-linejoin:miter;stroke-miterlimit:4;stroke-dasharray:none;stroke-dashoffset:0;stroke-opacity:1;color-rendering:auto;image-rendering:auto;shape-rendering:auto;text-rendering:auto;enable-background:accumulate"
       d="M 482.90526,274.96891 C 452.01645,221.46792 335.52133,232.15327 289.90772,258.4883 c -45.61361,26.33503 -71.13351,98.33537 -40.54514,151.31654 30.58855,52.98156 105.14061,67.20609 151.31708,40.54609 46.17648,-26.66 113.11441,-121.88103 82.2256,-175.38202 z"
       id="path4136"
       inkscape:connector-curvature="0"
       sodipodi:nodetypes="zzszz" />
    <circle
       style="color:#000000;clip-rule:nonzero;display:inline;overflow:visible;visibility:visible;opacity:0.98000004;isolation:auto;mix-blend-mode:normal;color-interpolation:sRGB;color-interpolation-filters:linearRGB;solid-color:#000000;solid-opacity:1;fill:#000000;fill-opacity:0.07843137;fill-rule:nonzero;stroke:none;stroke-width:6;stroke-linecap:round;stroke-linejoin:miter;stroke-miterlimit:4;stroke-dasharray:none;stroke-dashoffset:0;stroke-opacity:1;color-rendering:auto;image-rendering:auto;shape-rendering:auto;text-rendering:auto;enable-background:accumulate"
       id="path7559"
       cx="287.46976"
       cy="431.642"
       r="21.859249"
       clip-path="url(#clipPath7606)" />
    <circle
       style="color:#000000;clip-rule:nonzero;display:inline;overflow:visible;visibility:visible;opacity:0.98000004;isolation:auto;mix-blend-mode:normal;color-interpolation:sRGB;color-interpolation-filters:linearRGB;solid-color:#000000;solid-opacity:1;fill:#000000;fill-opacity:0.07843137;fill-rule:nonzero;stroke:none;stroke-width:6;stroke-linecap:round;stroke-linejoin:miter;stroke-miterlimit:4;stroke-dasharray:none;stroke-dashoffset:0;stroke-opacity:1;color-rendering:auto;image-rendering:auto;shape-rendering:auto;text-rendering:auto;enable-background:accumulate"
       id="path7559-9"
       cx="327.88876"
       cy="420.09369"
       r="13.198037" />
    <circle
       style="color:#000000;clip-rule:nonzero;display:inline;overflow:visible;visibility:visible;opacity:0.98000004;isolation:auto;mix-blend-mode:normal;color-interpolation:sRGB;color-interpolation-filters:linearRGB;solid-color:#000000;solid-opacity:1;fill:#000000;fill-opacity:0.07843137;fill-rule:nonzero;stroke:none;stroke-width:6;stroke-linecap:round;stroke-linejoin:miter;stroke-miterlimit:4;stroke-dasharray:none;stroke-dashoffset:0;stroke-opacity:1;color-rendering:auto;image-rendering:auto;shape-rendering:auto;text-rendering:auto;enable-background:accumulate"
       id="path7559-9-3"
       cx="306.44196"
       cy="398.64691"
       r="7.8363342" />
    <path
       style="fill:#8d3d00;fill-opacity:1;fill-rule:evenodd;stroke:none;stroke-width:1px;stroke-linecap:butt;stroke-linejoin:miter;stroke-opacity:1"
       d="m 383.95505,245.3829 c 0,0 24.2617,26.95602 29.16719,59.21742 0,0 -102.26205,65.90806 -118.44414,22.90303 -19.83099,-40.92235 61.97967,-53.86515 93.7161,-70.54161 -10.26325,-16.6182 -4.43915,-11.57884 -4.43915,-11.57884 z"
       id="path6863"
       inkscape:connector-curvature="0"
       sodipodi:nodetypes="ccccc" />
    <path
       style="fill:#ffffff;fill-opacity:1;fill-rule:evenodd;stroke:none;stroke-width:1px;stroke-linecap:butt;stroke-linejoin:miter;stroke-opacity:1"
       d="m 218.18006,374.72546 2.88707,-14.02292 7.01146,1.23732 3.71195,14.02291 0.41244,-21.44681 7.01145,0 8.24878,26.80851 -30.10803,3.29951 z"
       id="path6865"
       inkscape:connector-curvature="0"
       clip-path="url(#clipPath6882)"
       transform="matrix(0.4192965,0.90784935,-0.90784935,0.4192965,533.96765,-39.241068)" />
    <g
       id="g6911"
       transform="matrix(0.5,0.8660254,-0.8660254,0.5,499.84399,-46.329531)">
      <path
         inkscape:connector-curvature="0"
         id="path6886"
         d="m 241.44579,219.43739 c 0,0 3.08025,-6.35241 9.56801,-3.66176 6.48776,2.69066 4.98237,8.28035 4.98237,8.28035"
         style="fill:none;fill-rule:evenodd;stroke:#8d3d00;stroke-width:6;stroke-linecap:round;stroke-linejoin:miter;stroke-miterlimit:4;stroke-dasharray:none;stroke-opacity:1" />
      <path
         inkscape:connector-curvature="0"
         id="path6886-2"
         d="m 215.92747,224.59118 c 0,0 -2.1871,-6.7125 4.35268,-9.27412 6.53979,-2.56162 9.33233,2.50913 9.33233,2.50913"
         style="fill:none;fill-rule:evenodd;stroke:#8d3d00;stroke-width:6;stroke-linecap:round;stroke-linejoin:miter;stroke-miterlimit:4;stroke-dasharray:none;stroke-opacity:1" />
    </g>
    <path
       style="fill:#d3f6ff;fill-opacity:1;fill-rule:evenodd;stroke:none;stroke-width:1px;stroke-linecap:butt;stroke-linejoin:miter;stroke-opacity:1"
       d="m 440.66125,298.03055 c 0,0 17.9982,8.09979 17.311,18.11129 -0.68721,10.01151 -14.51999,7.5668 -17.311,-18.11129 z"
       id="path6903"
       inkscape:connector-curvature="0" />
    <path
       style="fill:#d3f6ff;fill-opacity:1;fill-rule:evenodd;stroke:none;stroke-width:1px;stroke-linecap:butt;stroke-linejoin:miter;stroke-opacity:1"
       d="m 434.91464,301.29048 c 0,0 -4.447,30.37449 -23.74607,36.49824 -19.29908,6.12376 -2.8325,-10.25998 5.84253,-17.03191 8.67503,-6.77193 17.90354,-19.46633 17.90354,-19.46633 z"
       id="path6905"
       inkscape:connector-curvature="0" />
    <path
       style="fill:#d3f6ff;fill-opacity:1;fill-rule:evenodd;stroke:none;stroke-width:1px;stroke-linecap:butt;stroke-linejoin:miter;stroke-opacity:1"
       d="m 408.29882,233.65587 c 0,0 12.48981,-15.28222 7.40584,-23.93413 -5.08398,-8.65192 -16.37079,-0.28949 -7.40584,23.93413 z"
       id="path6903-7"
       inkscape:connector-curvature="0" />
    <path
       style="fill:#d3f6ff;fill-opacity:1;fill-rule:evenodd;stroke:none;stroke-width:1px;stroke-linecap:butt;stroke-linejoin:miter;stroke-opacity:1"
       d="m 400.11303,231.99938 c 0,0 -10.47212,-28.85689 -30.60897,-30.96915 -20.13686,-2.11226 -0.70853,10.62018 9.1524,15.5066 9.86094,4.88642 21.45657,15.46255 21.45657,15.46255 z"
       id="path6905-0"
       inkscape:connector-curvature="0" />
    <path
       style="fill:#ffffff;fill-opacity:1;fill-rule:evenodd;stroke:none;stroke-width:1px;stroke-linecap:butt;stroke-linejoin:miter;stroke-opacity:1"
       d="m 206.48692,303.62637 c 0,0 -3.24194,-11.58448 8.86148,-18.59174 12.10342,-7.00725 29.20069,-3.291 49.17251,-14.07411 8.50404,-2.26911 8.25332,6.83307 4.86514,7.9927 0,0 -5.38639,2.25881 -7.64519,4.08323 5.29951,1.30317 19.63424,2.78008 28.84324,7.73208 4.51761,4.6045 -1.82442,8.42711 -4.17011,7.99271 -10.59902,-2.08506 -26.41068,-2.78008 -26.41068,-2.78008 0,0 18.62302,8.13932 23.86909,13.95997 0.9022,1.73744 -0.35174,8.17037 -3.8226,7.2977 -11.99264,-3.01529 -21.04453,-7.77265 -31.33903,-9.62122 -25.03919,2.48202 -32.15837,-1.70451 -32.15837,-1.70451 l -8.6588,49.54244 30.08994,-18.44105 c 0,0 -1.04169,5.33898 -1.57683,12.09818 l -31.76,19.83856 c 0,0 -3.69586,1.25575 -6.55787,-1.01015 -2.93652,-2.32489 -1.67261,-6.25332 -1.67261,-6.25332 z"
       id="path6968"
       inkscape:connector-curvature="0"
       sodipodi:nodetypes="czcscccccsccccccscc" />
    <path
       style="fill:#ffffff;fill-opacity:1;fill-rule:evenodd;stroke:none;stroke-width:1px;stroke-linecap:butt;stroke-linejoin:miter;stroke-opacity:1"
       d="m 421.0651,402.62645 c 0,0 -2.82942,-6.74707 1.52353,-10.88237 4.35295,-4.1353 9.14119,1.08824 9.14119,1.08824 l 61.98147,72.29865 -140.35666,123.11988 c 0,0 -3.66266,20.50151 -16.889,25.92986 -4.90584,6.47246 -5.94179,24.37538 -5.94179,24.37538 0,0 0,6.31176 -7.4,6.09411 -8.7059,-1.74117 0.21764,-34.38826 0.21764,-34.38826 0,0 -11.9706,9.57647 -18.50002,20.89414 -4.35295,5.22353 -10.88236,1.30587 -9.14119,-4.35295 0,0 8.70589,-15.67061 18.50002,-25.46472 l -10.01177,2.39412 c -6.96472,-0.87059 -4.87336,-10.19841 1.52353,-9.57649 15.6706,1.52352 19.15296,-18.50002 36.12945,-13.05883 L 474.60633,462.26179 Z"
       id="path6936"
       inkscape:connector-curvature="0"
       sodipodi:nodetypes="cscccccccccccsccc" />
  </g>
</svg>
